<svg width="240" height="119" viewBox="0 0 240 119" fill="none" xmlns="http://www.w3.org/2000/svg">
<rect width="240" height="119" fill="#F5F5F5"/>
<rect width="240" height="119" fill="#FFFEFE"/>
<path d="M88.75 42.25C87.8333 42.5833 87.2083 43.0417 86.875 43.625C86.625 44.125 86.3333 44.7917 86 45.625C85.8333 45.9583 85.5 46.75 85 48C84.5 49.1667 83.9167 50.5833 83.25 52.25C82.5833 53.9167 81.8333 55.6667 81 57.5C80.25 59.3333 79.5417 61.0833 78.875 62.75C78.2083 64.4167 77.625 65.875 77.125 67.125C76.625 68.375 76.2917 69.2083 76.125 69.625C75.5417 70.9583 74.7917 72.5 73.875 74.25C73.0417 76 72 77.6667 70.75 79.25C69.5833 80.8333 68.25 82.1667 66.75 83.25C65.3333 84.3333 63.75 84.875 62 84.875C59.25 84.875 57.0417 83.8333 55.375 81.75C53.7083 79.5833 52.4167 76.8333 51.5 73.5C50.6667 70.0833 50.0833 66.2917 49.75 62.125C49.4167 57.875 49.125 53.75 48.875 49.75C48.7083 45.75 48.5 42 48.25 38.5C48 35 47.5 32.25 46.75 30.25C46.5833 30.25 46.4583 30.25 46.375 30.25C46.2917 30.25 46.2083 30.25 46.125 30.25C46.0417 30.25 46 30.25 46 30.25C46 30.25 45.9583 30.25 45.875 30.25H45.625C44.7917 30.75 44 31.5 43.25 32.5C42.5833 33.5 41.9583 34.5833 41.375 35.75C40.7917 36.8333 40.2917 37.875 39.875 38.875C39.5417 39.875 39.2917 40.6667 39.125 41.25L24.875 87C24.7917 87.25 24.6667 87.5833 24.5 88C24.3333 88.4167 24.0833 88.8333 23.75 89.25C23.5 89.5833 23.1667 89.875 22.75 90.125C22.4167 90.375 22.0417 90.4167 21.625 90.25C21.375 90.25 21.0417 90.0833 20.625 89.75C20.2917 89.3333 19.9583 88.9167 19.625 88.5C19.2917 88 19 87.5417 18.75 87.125C18.5 86.625 18.3333 86.25 18.25 86C17 77.5833 16.2917 69 16.125 60.25C15.9583 51.5 15.9583 43 16.125 34.75C16.0417 34.5833 15.8333 34.2083 15.5 33.625C15.25 33.0417 15.125 32.6667 15.125 32.5C15.125 31.9167 15.2917 31.3333 15.625 30.75C16.0417 30.0833 16.5 29.4583 17 28.875C17.5833 28.2917 18.1667 27.8333 18.75 27.5C19.4167 27.0833 20 26.875 20.5 26.875C21.3333 26.875 21.9167 27.125 22.25 27.625C22.5833 28.0417 22.75 28.6667 22.75 29.5C22.75 34 22.5417 38.4583 22.125 42.875C21.7083 47.2917 21.5 51.7917 21.5 56.375C21.5 56.9583 21.5 57.7917 21.5 58.875C21.5 59.9583 21.5 61.0417 21.5 62.125C21.5833 63.125 21.625 64.0417 21.625 64.875C21.625 65.7083 21.625 66.1667 21.625 66.25L22.75 70.75C22.8333 70.5833 23 70.375 23.25 70.125C23.5833 69.875 23.7917 69.7083 23.875 69.625C24.0417 69.2917 24.3333 68.6667 24.75 67.75C25.1667 66.8333 25.5833 65.875 26 64.875C26.5 63.7917 26.9583 62.7917 27.375 61.875C27.7917 60.875 28.0417 60.1667 28.125 59.75C28.2917 59.3333 28.5833 58.5833 29 57.5C29.4167 56.3333 29.9167 54.9583 30.5 53.375C31.0833 51.7083 31.7083 50 32.375 48.25C33.125 46.5 33.7917 44.8333 34.375 43.25C34.9583 41.6667 35.4583 40.2917 35.875 39.125C36.375 37.9583 36.7083 37.1667 36.875 36.75C37.2083 36.0833 37.7083 34.9167 38.375 33.25C39.125 31.5 40 29.7917 41 28.125C42.0833 26.375 43.2083 24.8333 44.375 23.5C45.625 22.1667 46.9167 21.5 48.25 21.5C49.5 21.5 50.4583 22.3333 51.125 24C51.7917 25.6667 52.2917 27.875 52.625 30.625C53.0417 33.2917 53.3333 36.375 53.5 39.875C53.6667 43.2917 53.7917 46.8333 53.875 50.5C54.0417 54.1667 54.25 57.75 54.5 61.25C54.8333 64.6667 55.2917 67.75 55.875 70.5C56.4583 73.1667 57.25 75.3333 58.25 77C59.3333 78.6667 60.75 79.5 62.5 79.5C63 79.5 63.5417 79.25 64.125 78.75C64.7917 78.1667 65.4167 77.5 66 76.75C66.5833 76 67.0833 75.25 67.5 74.5C68 73.75 68.3333 73.1667 68.5 72.75C69.0833 71.6667 69.9167 69.9583 71 67.625C72.0833 65.2917 73.2917 62.6667 74.625 59.75C76.0417 56.8333 77.5 53.75 79 50.5C80.5 47.25 81.9167 44.1667 83.25 41.25C84.5833 38.25 85.7917 35.5833 86.875 33.25C87.9583 30.9167 88.75 29.1667 89.25 28C89.6667 27 90.2083 25.625 90.875 23.875C91.625 22.125 92.1667 20.625 92.5 19.375C93.5 19.5417 94.5 19.8333 95.5 20.25C96.5 20.6667 97 21.4167 97 22.5C97 22.6667 96.9583 22.9167 96.875 23.25C96.875 23.5 96.875 23.6667 96.875 23.75C95.7083 30.5833 94.8333 37.25 94.25 43.75C93.75 50.1667 93.5 56.7917 93.5 63.625C93.5 64.2083 93.5 65.25 93.5 66.75C93.5 68.1667 93.5 69.75 93.5 71.5C93.5833 73.1667 93.625 74.75 93.625 76.25C93.625 77.6667 93.625 78.7083 93.625 79.375C94.0417 82.7917 95.25 85.9167 97.25 88.75C99.25 91.5833 101.292 94.25 103.375 96.75V99.625C102.625 99.625 101.708 99.25 100.625 98.5C99.5417 97.6667 98.4583 96.625 97.375 95.375C96.2917 94.125 95.2083 92.7083 94.125 91.125C93.125 89.5417 92.2083 88 91.375 86.5C90.625 85 90 83.625 89.5 82.375C89 81.125 88.75 80.125 88.75 79.375V42.25ZM110 77.75C110 75.3333 110.25 72.625 110.75 69.625C111.333 66.625 112.125 63.625 113.125 60.625C114.208 57.5417 115.542 54.5833 117.125 51.75C118.792 48.9167 120.667 46.375 122.75 44.125C124.917 41.875 127.292 40.0833 129.875 38.75C132.458 37.4167 135.292 36.75 138.375 36.75C141.042 36.75 143.5 37.375 145.75 38.625C148 39.7917 150.042 41.3333 151.875 43.25C153.792 45.0833 155.458 47.25 156.875 49.75C158.292 52.25 159.5 54.8333 160.5 57.5C161.5 60.0833 162.25 62.6667 162.75 65.25C163.333 67.75 163.625 70.0417 163.625 72.125C163.625 75.0417 163.125 77.75 162.125 80.25C161.125 82.75 159.75 85 158 87C156.333 89 154.333 90.75 152 92.25C149.75 93.75 147.333 95.0417 144.75 96.125C142.167 97.125 139.5 97.875 136.75 98.375C134.083 98.875 131.417 99.125 128.75 99.125C125.167 99.125 122.167 98.625 119.75 97.625C117.417 96.625 115.5 95.2083 114 93.375C112.583 91.4583 111.542 89.2083 110.875 86.625C110.292 83.9583 110 81 110 77.75ZM114.375 80.5C114.375 82.8333 114.75 84.875 115.5 86.625C116.25 88.2917 117.292 89.6667 118.625 90.75C119.958 91.75 121.542 92.5 123.375 93C125.208 93.4167 127.25 93.625 129.5 93.625C133 93.625 136.542 93.25 140.125 92.5C143.708 91.6667 146.917 90.375 149.75 88.625C152.583 86.7917 154.875 84.5 156.625 81.75C158.458 78.9167 159.375 75.5 159.375 71.5C159.375 69 158.875 66 157.875 62.5C156.958 59 155.625 55.6667 153.875 52.5C152.125 49.3333 149.958 46.6667 147.375 44.5C144.875 42.25 142.083 41.125 139 41.125C137.583 41.125 136.375 41.2083 135.375 41.375C134.458 41.4583 133.292 41.75 131.875 42.25V42.875V43.375C131.875 43.4583 131.917 43.6667 132 44C132.167 44.3333 132.333 44.7083 132.5 45.125C132.667 45.4583 132.792 45.7917 132.875 46.125C132.958 46.4583 133 46.6667 133 46.75C133 47.5 132.792 48.0833 132.375 48.5C131.958 48.8333 131.458 49.0833 130.875 49.25C130.375 49.4167 129.792 49.5417 129.125 49.625C128.542 49.7083 128 49.8333 127.5 50C124.75 51.1667 122.5 52.9167 120.75 55.25C119.083 57.5833 117.75 60.2083 116.75 63.125C115.833 65.9583 115.208 68.9167 114.875 72C114.542 75.0833 114.375 77.9167 114.375 80.5ZM181.125 76C181.042 76 180.958 76.25 180.875 76.75C180.792 77.25 180.667 77.875 180.5 78.625C180.417 79.375 180.292 80.125 180.125 80.875C180.042 81.625 179.958 82.25 179.875 82.75C179.792 83.0833 179.708 83.7917 179.625 84.875C179.542 85.875 179.417 86.9583 179.25 88.125C179.167 89.2917 179.083 90.375 179 91.375C178.917 92.375 178.875 93.125 178.875 93.625C178.792 93.7083 178.625 93.875 178.375 94.125C178.125 94.375 177.958 94.5833 177.875 94.75C177.708 94.75 177.583 94.75 177.5 94.75H177.25H176.875C176.792 94.75 176.708 94.75 176.625 94.75C176.458 94.5833 176.083 94.2083 175.5 93.625C174.917 93.0417 174.583 92.6667 174.5 92.5C174.333 91.8333 174.083 90.6667 173.75 89C173.5 87.3333 173.167 85.5833 172.75 83.75C172.417 81.9167 172.083 80.1667 171.75 78.5C171.5 76.8333 171.292 75.6667 171.125 75V74C171.125 73.4167 171.083 72.2917 171 70.625C171 68.9583 170.958 67 170.875 64.75C170.792 62.5 170.708 60.125 170.625 57.625C170.542 55.125 170.458 52.75 170.375 50.5C170.375 48.25 170.333 46.2917 170.25 44.625C170.167 42.9583 170.125 41.8333 170.125 41.25V40.5C170.125 37.1667 170.708 33.875 171.875 30.625C173.125 27.2917 174.792 24.2917 176.875 21.625C179.042 18.9583 181.583 16.7917 184.5 15.125C187.5 13.4583 190.75 12.625 194.25 12.625C196.167 12.625 198.042 13 199.875 13.75C201.708 14.5 203.333 15.5 204.75 16.75C206.167 18 207.292 19.5 208.125 21.25C209.042 23 209.5 24.875 209.5 26.875C209.5 29.7917 208.792 32.5833 207.375 35.25C205.958 37.9167 204.167 40.4167 202 42.75C199.917 45.0833 197.625 47.2917 195.125 49.375C192.708 51.4583 190.417 53.4167 188.25 55.25C186.167 57.0833 184.417 58.8333 183 60.5C181.583 62.1667 180.875 63.75 180.875 65.25C180.875 66.4167 181.375 67.75 182.375 69.25C183.458 70.6667 184.792 72.1667 186.375 73.75C188.042 75.25 189.875 76.75 191.875 78.25C193.875 79.6667 195.833 81.0417 197.75 82.375C199.75 83.625 201.583 84.75 203.25 85.75C204.917 86.75 206.208 87.5 207.125 88C207.458 88.25 208.125 88.625 209.125 89.125C210.125 89.625 211.208 90.1667 212.375 90.75C213.625 91.3333 214.75 91.9167 215.75 92.5C216.833 93 217.625 93.375 218.125 93.625C218.875 93.875 219.833 94.0833 221 94.25C222.25 94.3333 223.5 94.4583 224.75 94.625C226 94.7917 227.042 95.0833 227.875 95.5C228.792 95.8333 229.25 96.4583 229.25 97.375C229.25 97.4583 229.208 97.5417 229.125 97.625C229.125 97.625 229.125 97.6667 229.125 97.75V98C228.958 98.0833 228.75 98.25 228.5 98.5C228.25 98.75 228.042 98.9167 227.875 99C227.792 99 227.542 99 227.125 99C226.792 99 226.417 99 226 99C225.583 99.0833 225.167 99.125 224.75 99.125C224.417 99.125 224.167 99.125 224 99.125C220.167 99.125 216.333 98.375 212.5 96.875C208.667 95.2917 204.958 93.375 201.375 91.125C197.792 88.7917 194.375 86.2917 191.125 83.625C187.875 80.9583 184.875 78.4167 182.125 76H181.125ZM178.75 33.25C178.75 35 178.708 36.875 178.625 38.875C178.542 40.7917 178.5 42.7083 178.5 44.625C178.583 46.5417 178.792 48.4167 179.125 50.25C179.542 52.0833 180.208 53.7917 181.125 55.375C181.875 54.875 183 54.0417 184.5 52.875C186 51.625 187.625 50.2083 189.375 48.625C191.208 46.9583 193.042 45.1667 194.875 43.25C196.792 41.3333 198.5 39.4583 200 37.625C201.5 35.7083 202.75 33.875 203.75 32.125C204.75 30.375 205.25 28.875 205.25 27.625C205.25 25.7083 204.875 24.1667 204.125 23C203.375 21.75 202.417 20.7917 201.25 20.125C200.083 19.375 198.75 18.875 197.25 18.625C195.75 18.375 194.208 18.25 192.625 18.25C187.875 18.25 184.375 19.625 182.125 22.375C179.875 25.125 178.75 28.75 178.75 33.25Z" fill="black"/>
</svg>
